<svg width="48" height="48" viewBox="0 0 48 48" fill="none" xmlns="http://www.w3.org/2000/svg">
<!-- Central frame -->
<rect x="8" y="8" width="32" height="32" rx="4" fill="none" stroke="#9CA3AF" stroke-width="2"/>

<!-- User icon in center -->
<rect x="18" y="18" width="12" height="12" rx="2" fill="#6366F1"/>
<circle cx="24" cy="22" r="2" fill="white"/>
<path d="M20 28c0-2 2-3 4-3s4 1 4 3" stroke="white" stroke-width="1.5" fill="none"/>

<!-- DeFi nodes -->
<circle cx="24" cy="4" r="6" fill="#E1A441" stroke="#E6A000" stroke-width="1"/>
<text x="24" y="8" text-anchor="middle" fill="white" font-family="Arial, sans-serif" font-size="6" font-weight="bold">%</text>

<circle cx="44" cy="24" r="6" fill="#E1A441" stroke="#E6A000" stroke-width="1"/>
<text x="44" y="28" text-anchor="middle" fill="white" font-family="Arial, sans-serif" font-size="6" font-weight="bold">₿</text>

<circle cx="24" cy="44" r="6" fill="#E1A441" stroke="#E6A000" stroke-width="1"/>
<text x="24" y="48" text-anchor="middle" fill="white" font-family="Arial, sans-serif" font-size="6" font-weight="bold">$</text>

<circle cx="4" cy="24" r="6" fill="#E1A441" stroke="#E6A000" stroke-width="1"/>
<polygon points="4,20 2,26 6,26" fill="white"/>

<!-- Connection lines -->
<line x1="24" y1="10" x2="24" y2="18" stroke="#9CA3AF" stroke-width="2"/>
<line x1="38" y1="24" x2="30" y2="24" stroke="#9CA3AF" stroke-width="2"/>
<line x1="24" y1="38" x2="24" y2="30" stroke="#9CA3AF" stroke-width="2"/>
<line x1="10" y1="24" x2="18" y2="24" stroke="#9CA3AF" stroke-width="2"/>
</svg>